inDegrees=yes
name=ik_example_mov
DataType=double
version=3
OpenSimVersion=4.5
endheader
time	pelvis_tilt	pelvis_list	pelvis_rotation	pelvis_tx	pelvis_ty	pelvis_tz	hip_flexion_r	hip_adduction_r	hip_rotation_r	knee_angle_r	knee_angle_r_beta	ankle_angle_r	subtalar_angle_r	mtp_angle_r	hip_flexion_l	hip_adduction_l	hip_rotation_l	knee_angle_l	knee_angle_l_beta	ankle_angle_l	subtalar_angle_l	mtp_angle_l	lumbar_extension	lumbar_bending	lumbar_rotation	arm_flex_r	arm_add_r	arm_rot_r	elbow_flex_r	pro_sup_r	wrist_flex_r	wrist_dev_r	arm_flex_l	arm_add_l	arm_rot_l	elbow_flex_l	pro_sup_l	wrist_flex_l	wrist_dev_l
1.002873659133911	-7.827481034603108e-14	0	0	0	0.93	0	0	0	0	0	0	0	0	0	0	0	0	0	0	0	0	0	0	0	0	0	0	0	0	0	0	0	0	0	0	0	0	0	0
1.007544755935669	-1.614326613061399e-12	5.01749015126745e-11	-2.888336218979361e-11	-3.148382637126025e-27	0.93	-1.049680006072136e-26	0.1591625551339672	-0.01635844700210887	-0.05914715134407748	0.3173085754551406	0.005538079386665248	0.01416115875436214	2.168502491656194e-26	-1.428416005863052e-24	2.813503950749817e-45	-9.780102900466295e-31	0	7.225694335353342e-06	1.261121569321337e-07	-3.443330579806351e-23	3.438278846239984e-25	-3.807585249860374e-25	0	1.795748516982295e-34	2.900809143265423e-29	-9.259866968824984e-22	2.31571816919624e-23	-4.569405274600103e-23	7.205669885517792e-06	7.225688792055305e-06	8.241131157190158e-27	-2.838555537293593e-27	-2.027863414199736e-23	4.384660840087923e-25	8.373126772933283e-23	7.225712807861892e-06	7.22569456424659e-06	2.134283391808577e-28	-1.099360774196242e-26
1.012088775634765	-7.827481034603108e-14	0	0	0	0.93	0	0.1632822176635799	-0.01600056109627733	-0.04624750834762031	0.3195847930124279	0.005577806877371434	0.04768304902867451	0	0	0	0	0	2.880904621025608e-39	0	0	0	0	0	0	0	0	0	0	0	0	0	0	0	0	0	0	0	0	0
1.017356872558593	-7.827481034598748e-14	-4.768841500292434e-23	1.092203086050544e-25	3.101409804320029e-24	0.93	-2.983320482252064e-24	0.1704632922893067	-0.01866568680689457	-0.0005390540807880679	0.333695185856592	0.005824079691251247	0.04105154602427641	1.813735439318813e-15	-1.693625935522812e-17	0	0	2.04567666837341e-22	1.657742311571717e-14	5.205184997119256e-16	4.853633951277742e-17	1.313921069345003e-15	2.725594084711296e-17	-2.058633467850459e-23	5.323532295687855e-14	-1.271263060583587e-13	-9.448864166645654e-16	9.174082854549889e-16	3.237977983911152e-15	1.648051164499271e-14	1.648051168617317e-14	2.497651540011247e-22	-2.385629657914167e-22	3.317633709354958e-16	-6.305810054623975e-16	-4.314387818702064e-16	1.648051164535299e-14	1.648051173405583e-14	-1.437797368260495e-22	1.444307723776457e-21
1.02234148979187	-7.827481034602402e-14	-6.056502301279463e-18	-4.375255306845709e-27	-3.122821424205755e-19	0.93	1.325740219029934e-20	0.1670578297938806	-0.02536046320619762	-0.007566578143857259	0.3330170396406437	0.005812243806973707	0.05815062638295392	1.121446275538833e-14	-4.660818280853675e-15	4.043314897684082e-30	7.518147650392889e-19	-7.61699608501618e-30	9.224538965656167e-16	1.609985770441333e-17	1.160198492525889e-13	4.611497378510639e-14	-5.540383773593088e-23	-3.510102541366397e-18	1.733879625629722e-28	3.03044856163804e-20	-1.748309991445035e-24	-1.316857820404813e-14	1.975753786419865e-14	9.224539449462895e-16	9.224453968618542e-16	-5.228886255851116e-19	-2.996065626231635e-17	2.052763583090681e-13	-7.43446057192654e-15	-9.251498835209748e-14	9.224420470714449e-16	9.224484959018543e-16	-1.123046987455089e-18	-9.964379108903976e-17
1.027828216552734	-7.827481034603108e-14	0	0	0	0.93	0	0.1660733023337078	-0.02997520470783158	0.007297512141486464	0.3386287445268425	0.005910186533888129	0.0902655767926709	0	0	0	0	0	4.214292546625375e-40	0	0	0	0	0	0	0	0	0	0	7.250690251198501e-40	0	0	0	0	0	0	0	0	0	0
1.032812118530273	-7.827481034603117e-14	0	0	0	0.93	0	0.1589780563671	-0.02546447725570808	0.001392239914957448	0.3357376504536164	0.00585972742332544	0.1112245352866662	0	0	0	0	0	0	0	0	0	0	0	0	0	0	0	0	0	0	0	0	0	0	0	0	0	0	0
1.039321899414062	-7.827481034602933e-14	-2.184410813790689e-19	3.776144252990972e-27	-2.822362858784474e-20	0.93	-7.80474390515709e-21	0.1494048007888173	-0.03534286732916883	0.06734056916987924	0.3710686866444062	0.006476370332995997	0.1254332246882549	6.931014496163292e-20	4.540812107031666e-24	-8.897165128955973e-30	-2.588560487276889e-21	0	2.788751836248991e-16	4.867290155611049e-18	-1.376212153057565e-15	5.180049721228918e-20	-4.490913072888461e-25	-8.191580927446245e-22	0	6.164671312933135e-21	-3.331241640664288e-24	-6.674237405966067e-15	-1.893415018549512e-15	2.78875177420767e-16	2.788751754708643e-16	5.03563314912937e-20	-1.081010198806049e-19	-1.170433011378609e-15	-9.042401376584508e-20	6.082227056340866e-16	2.788750920693909e-16	2.788751563094892e-16	9.178719349637738e-20	2.260723326733946e-20
1.046386003494262	-7.827481034603132e-14	-9.162403480630447e-19	2.249110102984751e-28	-1.957657253783657e-20	0.93	5.949033841535085e-22	0.1514770806202024	-0.03821425672270406	0.08007164321311944	0.4063977087231266	0.007092978089779441	0.1203058684535788	4.877641435114419e-22	-7.87717723775162e-25	-1.38936752687404e-29	5.837311953721474e-21	0	1.691465499847796e-15	2.952164215597131e-17	-1.129731611838332e-16	3.612509278366083e-22	-4.870551388021236e-24	-2.221432682614705e-20	0	-1.351953728094763e-20	-7.222085442140691e-23	2.341196270859381e-20	1.575047899843065e-15	1.691465472538671e-15	1.691465526050699e-15	1.631311354646783e-18	-1.986810572774726e-18	1.602941400732952e-15	-7.563319544734938e-24	-1.183780199327948e-19	1.69146547257049e-15	1.691465524491561e-15	-2.421506136895921e-20	-7.475191884249173e-19
1.051903963088989	-7.827481034603222e-14	-1.054205323552969e-21	-2.144941593221843e-26	-6.082512325250974e-23	0.93	6.204732994709976e-22	0.1291925543268566	-0.02184342808968242	0.07330306596992317	0.3958845942746185	0.006909489628013986	0.1403862106545833	1.002638180560735e-17	-2.163248569048034e-17	-2.461818790656456e-29	3.245425948929982e-23	0	1.733073423539823e-16	3.024783742653359e-18	4.304053517253114e-17	3.557707429547649e-17	5.054367293182564e-17	8.850896153705607e-22	0	1.378258329371837e-22	-3.198937994009574e-24	-5.012362092287415e-19	3.909806776143555e-16	1.733073355828183e-16	1.733073487994062e-16	7.31667820102598e-22	-1.427603863902617e-20	2.899674421993439e-16	8.121772141567495e-17	4.452023149395543e-16	1.733073356593166e-16	1.733073488928502e-16	-5.303133753538364e-21	2.110512191935215e-23
